<?xml version="1.0" encoding="iso-8859-1"?>
<!-- Generator: Adobe Illustrator 16.0.0, SVG Export Plug-In . SVG Version: 6.00 Build 0)  -->
<!DOCTYPE svg PUBLIC "-//W3C//DTD SVG 1.1//EN" "http://www.w3.org/Graphics/SVG/1.1/DTD/svg11.dtd">
<svg version="1.1" id="Capa_1" xmlns="http://www.w3.org/2000/svg" xmlns:xlink="http://www.w3.org/1999/xlink" x="0px" y="0px"
	 width="31.979px" height="31.979px" viewBox="0 0 31.979 31.979" style="enable-background:new 0 0 31.979 31.979;"
	 xml:space="preserve">
<g>
	<g>
		<path d="M22.798,29.64c-0.671-0.383-0.359-1.321-0.524-1.93c-3.869,2.551-6.498-1.798-6.688-2.801
			c-0.907-0.432-7.215-10.561-7.215-10.561l-3.729,2.914l1.1-6.977L4.069,7.327c0,0,2.867-3.68,1.959-3.918
			C5.122,3.17,3.162,4.556,2.829,5.56c-0.334,1.003,0.477,5.11,0.477,5.11s-1.959,2.963-2.103,4.11
			c-0.145,1.146-0.812,8.171,0.19,8.888s8.074-4.491,8.743-4.015c0.67,0.479,1.479,9.243,1.576,9.844
			c0.098,0.6-0.62,2.483-0.62,2.483s11.609,0,12.757,0c1.146,0,0.479-2.342,0.479-2.342S23.468,30.021,22.798,29.64z"/>
		<path d="M21.461,0.542c-4.491-2.389-6.126,3.902-6.126,3.902s6.63,4.604,6.642,4.46C21.988,8.759,25.954,2.931,21.461,0.542z"/>
		<path d="M26.986,19.798c-0.812,0.19-5.012,2.132-5.356,2.657c0.322,0.733,1.048,3.396,1.326,4.229
			c0.277,0.833,7.153-5.787,7.153-5.787S27.797,19.605,26.986,19.798z"/>
		<path d="M24.638,26.505c-0.392,0.069-0.823,0.469-0.823,0.469s-1.058,0.93-0.824,1.734c0.232,0.808,1.271,0.306,1.531,0
			C24.783,28.402,25.03,26.436,24.638,26.505z"/>
		<path d="M25.456,25.925c0,0-0.107,4.932-0.564,5.865c0.623,0,1.365,0,2.078,0c0.712,0-0.522-6.304-0.686-6.429
			S25.456,25.925,25.456,25.925z"/>
		<path d="M27.757,23.96c-0.233-0.089-1.076,0.854-1.076,0.854s1.114,3.096,1.104,6.854c3.341-0.042,0,0,3.341-0.042
			C31.232,29.799,27.991,24.05,27.757,23.96z"/>
		<path d="M29.373,22.635c-0.306-0.019-1.086,1.013-1.086,1.013s0.938,0.853,1.822,2.519c0.155-0.112,0.423-0.468,0.496-0.878
			C30.679,24.878,29.676,22.651,29.373,22.635z"/>
		<path d="M30.479,23.268c0.126-0.229,0.416-1.539,0.146-1.72c-0.271-0.179-0.821,0.762-0.821,0.762S30.354,23.494,30.479,23.268z"
			/>
		<path d="M18.119,15.318c-0.016-0.037-0.023-0.062-0.023-0.062s0.81-2.894,0.452-3.344c-0.446-0.565-2.149-2.724-2.149-2.724
			s-2.197,0.085-2.148,0.859c0.048,0.775,0.286,4.635,0.286,4.635l1.004,0.622c0,0,0,8.791,0.858,9.508
			c2.246,4.204,5.064,2.866,5.542,1.911c0.188-0.376-0.368-2.232-1.109-4.346l0,0c-0.033-0.094-0.066-0.188-0.102-0.284
			c-0.104-0.287-0.206-0.573-0.312-0.865c-0.021-0.061-0.043-0.118-0.064-0.179c-0.876-2.382-1.827-4.743-2.142-5.514
			c-0.021-0.052-0.04-0.099-0.056-0.136C18.133,15.356,18.127,15.342,18.119,15.318z"/>
		<path d="M15.007,22.799c-0.181-1.414-0.318-3.596-0.33-7.014l-0.599-0.369l-0.378-0.233l-0.026-0.444l-0.287-4.633
			c-0.021-0.341,0.099-0.672,0.336-0.936c0.623-0.688,2.054-0.814,2.642-0.838l0.438-0.019l0.271,0.344l2.149,2.724
			c0.195,0.25,0.602,0.764-0.224,3.822c1.153,2.812,1.961,4.93,2.533,6.554c1.45-1.07,4.033-2.099,5.245-2.552
			c1.229-0.459,3.023-4.301-0.826-6.958c-3.964-2.007-13.854-9.699-15.384-9.843C9.039,2.263,4.977,6.563,5.122,7.47
			C5.248,8.271,11.209,17.25,15.007,22.799z"/>
	</g>
</g>
<g>
</g>
<g>
</g>
<g>
</g>
<g>
</g>
<g>
</g>
<g>
</g>
<g>
</g>
<g>
</g>
<g>
</g>
<g>
</g>
<g>
</g>
<g>
</g>
<g>
</g>
<g>
</g>
<g>
</g>
</svg>
