<?xml version="1.0" encoding="iso-8859-1"?>
<!-- Generator: Adobe Illustrator 16.0.0, SVG Export Plug-In . SVG Version: 6.00 Build 0)  -->
<!DOCTYPE svg PUBLIC "-//W3C//DTD SVG 1.1//EN" "http://www.w3.org/Graphics/SVG/1.1/DTD/svg11.dtd">
<svg version="1.1" id="Capa_1" xmlns="http://www.w3.org/2000/svg" xmlns:xlink="http://www.w3.org/1999/xlink" x="0px" y="0px"
	 width="30.432px" height="30.432px" viewBox="0 0 30.432 30.432" style="enable-background:new 0 0 30.432 30.432;"
	 xml:space="preserve">
<g>
	<g>
		<path d="M13.343,5.465c1.023-0.184,1.839-0.968,2.353-1.61c-0.527-0.824-1.198-1.541-1.87-2.12
			c-0.191,0.827-0.611,1.985-1.519,2.728C12.712,4.749,13.082,5.085,13.343,5.465z"/>
		<path d="M13.605,5.952c0.088,0.23,0.133,0.474,0.114,0.729c0.045,0.286,0.054,0.529,0.035,0.744
			c1.013,0.414,2.207,0.221,2.919,0.032c0.023-0.208,0.033-0.398,0.03-0.556c-0.027-0.926-0.311-1.779-0.725-2.552
			C15.436,4.996,14.628,5.711,13.605,5.952z"/>
		<path d="M9.928,3.264c-0.043-0.019,0.934,0.299,1.905,0.884c0.977-0.705,1.374-2.009,1.527-2.792
			C12.131,0.4,11.035-0.08,11.02,0.072C11.376,0.927,9.928,3.264,9.928,3.264z"/>
		<path d="M14.493,10.683c1.241-0.22,1.85-1.541,2.086-2.654c-0.407,0.096-0.911,0.179-1.453,0.179
			c-0.494,0-1.014-0.069-1.506-0.261c-0.146,0.303-0.395,0.497-0.738,0.607c0.177,0.896,0.782,1.666,1.304,2.183
			C14.288,10.718,14.389,10.705,14.493,10.683z"/>
		<path d="M10.776,10.062c0.525,0.646,1.572,0.857,2.752,0.76c-0.504-0.56-1.011-1.313-1.174-2.192
			c-0.667-0.067-0.745-1.034-0.228-1.971C11.738,6.664,9.606,8.339,10.776,10.062z"/>
		<path d="M29.037,14.087c-0.724,0.603-1.74,1.362-3.009,1.021c-0.317-0.25-0.711-0.45-1.202-0.583
			c-7.164-2.034-14.461-2.122-15.347-3.185c-0.885-1.062-1.039-2.364,0.067-2.74c2.255-0.93,1.319-4.776-0.243-5.439
			c0.354-0.177,1.99-3.228,0.619-3.14c-4.466-0.355-5.461,3.67-5.35,4.422c0.109,0.751-2.39,2.653-3.097,3.36
			C0.768,8.512,0.99,9.529,1.874,9.817c0.885,0.287,3.243-1.085,3.339-0.178c1.104,8.403,1.505,7.435,1.839,8.341
			S5.499,25,5.36,25.467c-0.175,0.58,0.27,2.187,0.27,2.187s-0.261,0.333-0.426,0.851c-0.166,0.521-0.116,1.433,0.58,1.585
			c0.531-0.529,1.134-0.989,1.372-1.373c-0.097-0.251-0.425-0.638-0.425-0.638s-0.256-2.503,0.093-3.16
			c0.348-0.658,3.042-3.792,3.042-3.792l1.459,4.293c0,0-0.153,2.9-0.349,3.371c-1-0.002-1.405,1.396-0.978,1.396
			c0.429,0,1.971,0.004,2.221,0.004s0.099-0.522,0.171-1.004c0.028-0.227,0.704-3.414,0.621-3.789s0.167-3.417,0.167-3.417
			s1.033,0.476,4.688,0.5c3.654,0.021,4.511,0.021,4.534,0.798c0.021,0.777,0.116,1.933-0.063,2.453
			c-0.181,0.519-0.791,2.875-1.061,3.3c-0.718-0.077-1.28,1.251-0.816,1.251s1.74-0.019,1.972-0.019
			c0.232,0,0.156-0.986,0.156-0.986s1.23-2.354,1.585-2.871c0.355-0.518,0.609-3.132,0.609-3.132l2.215,2.666
			c0,0,0.173,2.854,0.173,3.145c-0.754,0.077-1.305,1.295-0.938,1.295c0.367,0,1.905,0.052,2.188,0.052
			c0.284,0,0.142-1.346,0.142-1.346s0.137-2.317,0.137-3.27s-1.864-2.775-2.102-3.537c-0.134-0.436,0.009-1.216,0.188-1.923h0.006
			c0.055-0.2,0.107-0.406,0.158-0.625c0.213-0.967,0.325-2.087,0.07-3.057C28.042,16.31,30.21,15.931,29.037,14.087z"/>
	</g>
</g>
<g>
</g>
<g>
</g>
<g>
</g>
<g>
</g>
<g>
</g>
<g>
</g>
<g>
</g>
<g>
</g>
<g>
</g>
<g>
</g>
<g>
</g>
<g>
</g>
<g>
</g>
<g>
</g>
<g>
</g>
</svg>
