<?xml version="1.0" encoding="iso-8859-1"?>
<!-- Generator: Adobe Illustrator 16.0.0, SVG Export Plug-In . SVG Version: 6.00 Build 0)  -->
<!DOCTYPE svg PUBLIC "-//W3C//DTD SVG 1.1//EN" "http://www.w3.org/Graphics/SVG/1.1/DTD/svg11.dtd">
<svg version="1.1" id="Capa_1" xmlns="http://www.w3.org/2000/svg" xmlns:xlink="http://www.w3.org/1999/xlink" x="0px" y="0px"
	 width="32px" height="32px" viewBox="0 0 32 32" style="enable-background:new 0 0 32 32;" xml:space="preserve">
<g>
	<g>
		<path d="M24.428,18.976c-0.093-1.295-5.011-3.958-8.123-4.147c-0.019-0.002-0.034-0.018-0.053-0.018
			c-3.042-0.139-8.581,2.78-8.68,4.154c-0.095,1.316,4.098,4.471,8.145,4.604c0.01,0.002,0.021,0.018,0.031,0.019
			C19.951,23.734,24.526,20.349,24.428,18.976z"/>
		<path d="M27.694,17.642c0.152-0.069,0.47-0.481,0.416-1.625c-0.051-1.143-0.697-1.776-1.133-1.737
			c-0.435,0.039-3.873,0.329-4.043,2.04C22.766,18.031,27.544,17.713,27.694,17.642z"/>
		<path d="M28.526,15.961c0,1.257,0.012,0.976,0,1.568c-0.01,0.593,2.314,0.637,3.138,2.907
			C32.868,18.224,28.526,14.705,28.526,15.961z"/>
		<path d="M25.223,18.181c-0.328,0.408,0.078,0.846-0.024,1.104c-0.104,0.261-0.896,1.212-1.038,1.603
			c-0.146,0.392,3.055,1.57,3.768,0.689c0.714-0.881,0.69-0.938,0.829-1.624C28.893,19.267,25.549,17.771,25.223,18.181z"/>
		<path d="M29.102,20.616c-0.322,0.436-1.209,1.39-0.851,1.538c1.364-0.052,3.019,1.624,3.627,3.136
			C32.43,24.685,31.046,19.433,29.102,20.616z"/>
		<path d="M25.534,22.861c-0.299-0.448-1.268-1.399-1.715-1.536c-0.448-0.137-3.797,1.842-2.707,2.669
			c0.906,0.533,2.466,0.267,3.25,0.42C24.896,23.968,25.646,23.295,25.534,22.861z"/>
		<path d="M25.874,23.588c-0.382,0.24-0.981,0.929-1.204,1.203c1.596,3.069,1.854,3.229,1.848,4.88
			C27.966,29.562,27.561,23.728,25.874,23.588z"/>
		<path d="M21.552,16.098c0.212,0.014,1.445-0.255,1.46-0.921c0.014-0.666-1.574-1.403-2.268-1.262
			c-0.694,0.141-2.146,0.628-1.629,0.899C19.629,15.085,21.34,16.083,21.552,16.098z"/>
		<path d="M23.817,11.209c-2.067-0.099-2.775,2.522-2.139,2.607c0.637,0.085,1.359,0.779,1.912,0.765S24.811,11.209,23.817,11.209z"
			/>
		<path d="M24.414,10.884c0.383,0.127,5.071-0.949,4.548-5.71c-1.035,1.332-3.627,2.635-4.548,1.969s-0.963-1.742-0.297-4.803
			c-6.519,2.14-1.517,7.807-1.29,8.189C23.055,10.912,24.032,10.756,24.414,10.884z"/>
		<path d="M3.888,16.007c-0.052,1.143,0.264,1.555,0.416,1.625c0.152,0.069,4.931,0.389,4.76-1.323
			c-0.17-1.71-3.608-2.001-4.042-2.04C4.587,14.23,3.939,14.865,3.888,16.007z"/>
		<path d="M3.472,17.517c-0.01-0.594,0-0.312,0-1.566s-4.34,2.262-3.136,4.479C1.158,18.155,3.482,18.113,3.472,17.517z"/>
		<path d="M7.841,20.876c-0.144-0.39-0.934-1.341-1.038-1.604c-0.104-0.26,0.302-0.694-0.025-1.104
			c-0.328-0.408-3.671,1.086-3.534,1.771c0.138,0.688,0.116,0.744,0.829,1.625C4.786,22.447,7.985,21.267,7.841,20.876z"/>
		<path d="M0.123,25.279c0.609-1.513,2.263-3.187,3.627-3.138c0.358-0.146-0.528-1.104-0.85-1.537
			C0.954,19.424-0.43,24.677,0.123,25.279z"/>
		<path d="M8.181,21.313c-0.448,0.138-1.417,1.089-1.714,1.535c-0.113,0.436,0.637,1.104,1.171,1.555
			c0.784-0.155,2.342,0.111,3.25-0.419C11.978,23.156,8.629,21.181,8.181,21.313z"/>
		<path d="M6.126,23.577C4.44,23.72,4.034,29.554,5.483,29.66c-0.009-1.647,0.25-1.812,1.847-4.879
			C7.108,24.505,6.509,23.815,6.126,23.577z"/>
		<path d="M8.988,15.166c0.014,0.666,1.247,0.935,1.459,0.921c0.212-0.015,1.923-1.013,2.437-1.283
			c0.514-0.27-0.935-0.757-1.629-0.898C10.561,13.765,8.974,14.5,8.988,15.166z"/>
		<path d="M10.32,13.806c0.638-0.085-0.071-2.706-2.14-2.606c-0.992,0-0.326,3.357,0.227,3.371
			C8.96,14.585,9.683,13.891,10.32,13.806z"/>
		<path d="M7.586,10.873c0.382-0.128,1.36,0.028,1.587-0.354c0.226-0.383,5.228-6.05-1.29-8.19C8.549,5.39,8.507,6.467,7.586,7.133
			c-0.921,0.665-3.514-0.638-4.548-1.97C2.514,9.924,7.203,11,7.586,10.873z"/>
	</g>
</g>
<g>
</g>
<g>
</g>
<g>
</g>
<g>
</g>
<g>
</g>
<g>
</g>
<g>
</g>
<g>
</g>
<g>
</g>
<g>
</g>
<g>
</g>
<g>
</g>
<g>
</g>
<g>
</g>
<g>
</g>
</svg>
