<?xml version="1.0" encoding="iso-8859-1"?>
<!-- Generator: Adobe Illustrator 16.0.0, SVG Export Plug-In . SVG Version: 6.00 Build 0)  -->
<!DOCTYPE svg PUBLIC "-//W3C//DTD SVG 1.1//EN" "http://www.w3.org/Graphics/SVG/1.1/DTD/svg11.dtd">
<svg version="1.1" id="Capa_1" xmlns="http://www.w3.org/2000/svg" xmlns:xlink="http://www.w3.org/1999/xlink" x="0px" y="0px"
	 width="32px" height="32px" viewBox="0 0 32 32" style="enable-background:new 0 0 32 32;" xml:space="preserve">
<g>
	<path d="M29.452,9.632c0.438-1.48,1.816-3.787-1.402-7.639c-3.223-3.854-10.914-1.851-7.854,3.702
		c0.506-3.938,4.119-3.55,6.139-1.127c0.758,1.012,0.189,2.641,0.189,2.641s-3.668-0.841-3.803,3.903
		c-0.055,1.021-1.342,2.568-1.449,2.645c-2.285,1.601-8.079-0.322-13.439,0.059c-4.776,0.051-6.986,2.719-5.996,5.945
		c0.619,0.288,0.924-2.422,1.245-2.285c0.322,0.135-0.559,1.65-0.381,2.285c0.178,0.637,0.838,2.635,0.584,3.455
		c-0.254,0.822-2.263,2.788-2.263,3.813s0.146,3.521,0.146,3.521S1.014,32,1.32,32c0.306,0,1.963-0.055,2.358-0.055
		c0.395,0-0.198-1.313-1.011-1.396c0-0.312,0.187-3.389,0.187-3.389l2.387-2.872c0,0,0.275,2.815,0.656,3.375
		c0.382,0.561,1.708,3.094,1.708,3.094S7.522,31.82,7.772,31.82s1.625,0.021,2.125,0.021s-0.108-1.432-0.879-1.349
		c-0.292-0.458-0.948-2.996-1.144-3.555c-0.194-0.562-0.093-1.806-0.067-2.645c0.026-0.839,0.943-0.198,4.882-0.226
		c3.938-0.025,4.813-0.438,4.813-0.438s1.031,6.549,1.09,7.026c0.078,0.52-0.086,1.082,0.185,1.082s1.933-0.005,2.394-0.005
		c0.463,0,0.022-1.506-1.053-1.504c-0.211-0.503-0.375-3.628-0.375-3.628l1.719-3.156c0,0,2.656,2.699,3.031,3.406
		c0.375,0.709,0.197,2.614,0.197,2.614s-0.354,0.417-0.459,0.688c0.258,0.412,0.908,0.908,1.479,1.479
		c0.75-0.167,0.805-1.148,0.625-1.708c-0.178-0.559-0.457-0.917-0.457-0.917s0.479-1.729,0.291-2.354
		c-0.188-0.625-2.271-5.271-2.771-6.707c-0.5-1.438,2.398-6.229,2.398-6.229s3.988,2.211,5.062,1.202
		C31.551,14.284,29.015,11.113,29.452,9.632z"/>
</g>
<g>
</g>
<g>
</g>
<g>
</g>
<g>
</g>
<g>
</g>
<g>
</g>
<g>
</g>
<g>
</g>
<g>
</g>
<g>
</g>
<g>
</g>
<g>
</g>
<g>
</g>
<g>
</g>
<g>
</g>
</svg>
