<?xml version="1.0" encoding="iso-8859-1"?>
<!-- Generator: Adobe Illustrator 16.0.0, SVG Export Plug-In . SVG Version: 6.00 Build 0)  -->
<!DOCTYPE svg PUBLIC "-//W3C//DTD SVG 1.1//EN" "http://www.w3.org/Graphics/SVG/1.1/DTD/svg11.dtd">
<svg version="1.1" id="Capa_1" xmlns="http://www.w3.org/2000/svg" xmlns:xlink="http://www.w3.org/1999/xlink" x="0px" y="0px"
	 width="26.106px" height="26.106px" viewBox="0 0 26.106 26.106" style="enable-background:new 0 0 26.106 26.106;"
	 xml:space="preserve">
<g>
	<path d="M17.112,18.412c0.021,0.688-0.066,1.787,0.143,2.073c1.041-0.001,0.912,0.982,0.482,0.982
		c-0.462,0-1.369,0.063-1.641,0.063c-0.27,0-0.234-0.531-0.172-0.781c0.156-0.75-0.422-4.317-0.547-4.719
		c-0.203-0.75-1.421,0.51-4.344,0.521c-3.938,0.017-4.109-1.021-4.22-0.146c-0.109,0.875-0.089,3.544,0.203,3.802
		C7.788,20.162,8,21.286,7.5,21.286s-1.25,0-1.5,0s-0.172-0.531-0.078-0.906c0.086-0.346-0.312-1.719-0.531-2.112
		c-0.219-0.396-0.484-1.767-0.797-2.351c-0.688,1.125-1.349,2.291-1.39,2.828s-0.453,1.864-0.267,2.114
		c0.813,0.046,0.833,0.953,0.438,0.953c-0.396,0-1.292-0.001-1.599-0.001c-0.306,0-0.197-0.404-0.104-0.692
		c0.093-0.288,0.032-1.67,0.22-2.605c0.188-0.938-0.211-3.288,0.729-4.75c0.606-0.938-0.004-1.532,0.538-2.949
		c-0.552,0.259-0.922,0.967-1.39,1.655c-0.468,0.688-1.516,2.267-0.928,3.429c0.055,0.035,0.115,0.074,0.183,0.119
		c0.499,0.333,0.042,1.047,0.042,1.047S0.235,16.67,0.3,16.251c0.017-0.168,0.043-0.146,0.068-0.243
		c-0.88-1.338-0.594-7.039,5.52-6.943c4.354,0.166,3.125,0.793,6.625,1.084s3.458-5.625,7.333-5.751
		c3.488-0.618,5.531,1.698,5.875,2.229c0.344,0.531-0.34,1.621-0.579,2.375c0.629,0.843,1.104,1.64,0.927,2.209
		c-0.182,0.593-0.307,0.688-0.682,1.094c-0.712,0.771-4.136-1.741-4.792-0.072c-0.453,1.108-0.792,1.729-0.667,2.24
		c0.125,0.51,0.865,1.348,1.104,1.896c0.237,0.548-0.341,2.907-0.341,2.907s0.161,0.074,0.341,0.39
		c0.178,0.316,0.072,1.126-0.438,0.893c-0.571-0.323-0.86-0.531-1.047-0.697c-0.188-0.166,0.108-0.527,0.219-0.568
		s0.143-2.084-0.232-2.482c-0.375-0.4-1.703-1.359-1.703-1.359S17.095,17.802,17.112,18.412z"/>
</g>
<g>
</g>
<g>
</g>
<g>
</g>
<g>
</g>
<g>
</g>
<g>
</g>
<g>
</g>
<g>
</g>
<g>
</g>
<g>
</g>
<g>
</g>
<g>
</g>
<g>
</g>
<g>
</g>
<g>
</g>
</svg>
