<?xml version="1.0" encoding="iso-8859-1"?>
<!-- Generator: Adobe Illustrator 16.0.0, SVG Export Plug-In . SVG Version: 6.00 Build 0)  -->
<!DOCTYPE svg PUBLIC "-//W3C//DTD SVG 1.1//EN" "http://www.w3.org/Graphics/SVG/1.1/DTD/svg11.dtd">
<svg version="1.1" id="Capa_1" xmlns="http://www.w3.org/2000/svg" xmlns:xlink="http://www.w3.org/1999/xlink" x="0px" y="0px"
	 width="32px" height="32px" viewBox="0 0 32 32" style="enable-background:new 0 0 32 32;" xml:space="preserve">
<g>
	<g>
		<path d="M1.78,19.263h6.97c0.983,0,1.78-0.796,1.78-1.778l-0.002-0.352c-0.015-1.361-0.046-4.196,1.523-5.784
			c0.852-0.861,2.101-1.28,3.818-1.28c2.497,0,4.066,0.885,4.941,2.782c0.771,1.678,0.771,3.691,0.77,4.633
			c0,0.981,0.797,1.777,1.779,1.777h6.856c0.983,0,1.78-0.796,1.78-1.777c0-0.982-0.797-1.779-1.78-1.779h-5.132
			c-0.092-1.238-0.348-2.825-1.043-4.342c-1.02-2.216-3.266-4.855-8.173-4.855c-2.68,0-4.816,0.786-6.35,2.338
			c-2.021,2.042-2.454,4.886-2.537,6.857H1.78c-0.983,0-1.78,0.796-1.78,1.779C0,18.467,0.797,19.263,1.78,19.263z"/>
		<path d="M30.221,21.934H1.78C0.797,21.934,0,22.73,0,23.712c0,0.983,0.797,1.78,1.78,1.78h28.441c0.982,0,1.779-0.797,1.779-1.78
			S31.203,21.934,30.221,21.934z"/>
	</g>
</g>
<g>
</g>
<g>
</g>
<g>
</g>
<g>
</g>
<g>
</g>
<g>
</g>
<g>
</g>
<g>
</g>
<g>
</g>
<g>
</g>
<g>
</g>
<g>
</g>
<g>
</g>
<g>
</g>
<g>
</g>
</svg>
