<?xml version="1.0" encoding="iso-8859-1"?>
<!-- Generator: Adobe Illustrator 16.0.0, SVG Export Plug-In . SVG Version: 6.00 Build 0)  -->
<!DOCTYPE svg PUBLIC "-//W3C//DTD SVG 1.1//EN" "http://www.w3.org/Graphics/SVG/1.1/DTD/svg11.dtd">
<svg version="1.1" id="Capa_1" xmlns="http://www.w3.org/2000/svg" xmlns:xlink="http://www.w3.org/1999/xlink" x="0px" y="0px"
	 width="31.998px" height="31.998px" viewBox="0 0 31.998 31.998" style="enable-background:new 0 0 31.998 31.998;"
	 xml:space="preserve">
<g>
	<g>
		<path d="M29.276,10.111c-0.166-0.34-0.257-0.528-0.257-0.528s2.528,0.58,2.818-0.249c-4.354-4.812-7.685-2.753-8.46-3.318
			c-2.446-2.364-6.346-1.41-6.803,0c-0.455,1.41,2.592,3.859,2.695,5.392c0.104,1.533,0.83,5.987,3.15,5.255
			c0.354-0.623,0-3.098,0.498-2.476s2.156,5.018-1.283,6.966c-2.406,0.953-3.07-1.778-7.198-1.45
			c2.552,1.993,3.547,3.938,3.547,3.938s-0.02,1.06-1.244,5.103c2.9-1.023,3.305-3.111,4.35-3.729
			c0.394,0.104,0.896,0.17,1.488,0.17c1.055,0,2.353-0.197,3.615-0.717c1.875-0.77,4.33-2.501,5.377-6.378
			C32.991,12.885,30.522,10.805,29.276,10.111z M20.909,5.996c-0.663-0.312-0.539-0.638-0.436-0.824
			c0.104-0.187,1.36,0.425,1.443,0.653S21.573,6.306,20.909,5.996z M30.61,17.832c-0.94,3.482-3.127,5.031-4.795,5.718
			c-0.447,0.185-0.887,0.312-1.313,0.408c4.647-2.456,6.368-8.758,5.715-11.679C30.913,13.329,31.37,15.048,30.61,17.832z"/>
		<path d="M9.575,15.334c-0.35,0.623,0,3.099-0.497,2.478c-0.498-0.623-2.157-5.02,1.285-6.969c2.406-0.954,3.069,1.779,7.198,1.451
			c-2.554-1.995-3.547-3.94-3.547-3.94s0.017-1.058,1.244-5.101c-2.9,1.023-3.306,3.111-4.35,3.728
			c-0.393-0.104-0.895-0.17-1.488-0.17c-1.055,0-2.352,0.198-3.615,0.717c-1.875,0.77-4.33,2.501-5.377,6.378
			c-1.42,5.207,1.049,7.287,2.294,7.979c0.167,0.343,0.258,0.528,0.258,0.528s-2.529-0.58-2.82,0.249
			c4.355,4.812,7.684,2.753,8.461,3.317c2.447,2.363,6.346,1.41,6.803,0c0.455-1.41-2.593-3.858-2.696-5.393
			C12.623,19.058,11.897,14.604,9.575,15.334z M1.78,19.718c-0.695-1.05-1.152-2.771-0.395-5.553
			c0.943-3.484,3.13-5.032,4.796-5.718C6.63,8.263,7.07,8.137,7.496,8.04C2.849,10.496,1.127,16.797,1.78,19.718z M11.523,26.824
			c-0.104,0.188-1.36-0.424-1.443-0.651s0.345-0.481,1.009-0.171C11.752,26.314,11.628,26.639,11.523,26.824z"/>
	</g>
</g>
<g>
</g>
<g>
</g>
<g>
</g>
<g>
</g>
<g>
</g>
<g>
</g>
<g>
</g>
<g>
</g>
<g>
</g>
<g>
</g>
<g>
</g>
<g>
</g>
<g>
</g>
<g>
</g>
<g>
</g>
</svg>
