<?xml version="1.0" encoding="iso-8859-1"?>
<!-- Generator: Adobe Illustrator 16.0.0, SVG Export Plug-In . SVG Version: 6.00 Build 0)  -->
<!DOCTYPE svg PUBLIC "-//W3C//DTD SVG 1.1//EN" "http://www.w3.org/Graphics/SVG/1.1/DTD/svg11.dtd">
<svg version="1.1" id="Capa_1" xmlns="http://www.w3.org/2000/svg" xmlns:xlink="http://www.w3.org/1999/xlink" x="0px" y="0px"
	 width="32px" height="32px" viewBox="0 0 32 32" style="enable-background:new 0 0 32 32;" xml:space="preserve">
<g>
	<g>
		<polygon points="8.722,32 9.547,32 9.547,26.228 5.924,26.228 		"/>
		<polygon points="10.242,32 11.068,32 13.865,26.228 10.242,26.228 		"/>
		<path d="M30.491,13.979l-4.027-1.787l0.773,1.471l-4.387,0.106c0.475-0.841,1.135-2.212,1.09-3.259
			c-0.07-1.621-2.75-3.012-2.513-3.445c0.233-0.434,0.733-0.749,0.882,0.134c0.127-0.123,1.318-1.179,0.123-1.875
			c-1.023-0.597-2.18,0.569-2.521,1.364l-3.217,3.217c-2.367,0.269-2.065-0.625-1.333-1.359c0.771-0.771,2.066-11.312-6.062-7.85
			c-8.13-3.462-6.834,7.079-6.064,7.85c0.773,0.773,1.072,1.725-1.727,1.309c2.382,3.393,4.449,0.638,4.449,0.638
			s1.13,0.672,3.08,0.729c0.006,0.001,0.01,0.003,0.015,0.003c0.016,0,0.029,0,0.045,0c0.064,0.001,0.135,0.001,0.202,0.001
			c0.065,0,0.136,0,0.201-0.001c0.016,0,0.028,0,0.045,0c0.004,0,0.009-0.002,0.013-0.003c1.951-0.057,3.082-0.729,3.082-0.729
			s1.036,1.378,2.486,0.981l-1.789,1.788c-0.582-1.03-0.994-1.715-0.994-1.715l-3.125,0.63l-3.126-0.629
			c0,0-4.405,9.618-4.228,12.078c0.18,2.461,13.217,2.302,15.225-1.091c0.289-0.816-0.481-2.852-1.481-4.951l4.28,4.167
			c-0.048,0.131-0.073,0.244-0.067,0.337c0.047,0.711,1.426,2.42,2.623,1.726c1.194-0.696,0.004-1.752-0.123-1.875
			c-0.146,0.883-0.646,0.565-0.883,0.133c-0.236-0.434,2.44-1.823,2.512-3.443c0.058-1.294-0.971-3.131-1.387-3.819l4.497-0.122
			l-0.563,1.222L30.491,13.979z M7.229,6.165c-0.55,0-0.994-0.382-0.994-0.854s0.444-0.853,0.994-0.853
			c0.549,0,0.993,0.382,0.993,0.854S7.778,6.165,7.229,6.165z M11.37,6.165c-0.55,0-0.993-0.382-0.993-0.854
			s0.443-0.854,0.993-0.854c0.551,0,0.994,0.382,0.994,0.854S11.92,6.165,11.37,6.165z M19.933,7.51
			c0.396,0.9,1.661,2.408,1.766,3.001c0.086,0.495-0.299,2.268-0.541,3.3l-6.33,0.154l-0.739-0.554l-0.061,0.005L19.933,7.51z
			 M21.707,18.626c-0.089,0.504-1.021,1.674-1.54,2.565l-5.359-5.217c-0.108-0.211-0.218-0.421-0.327-0.627l0.472-0.335l6.1-0.165
			C21.251,15.664,21.811,18.038,21.707,18.626z"/>
	</g>
</g>
<g>
</g>
<g>
</g>
<g>
</g>
<g>
</g>
<g>
</g>
<g>
</g>
<g>
</g>
<g>
</g>
<g>
</g>
<g>
</g>
<g>
</g>
<g>
</g>
<g>
</g>
<g>
</g>
<g>
</g>
</svg>
