<?xml version="1.0" encoding="iso-8859-1"?>
<!-- Generator: Adobe Illustrator 16.0.0, SVG Export Plug-In . SVG Version: 6.00 Build 0)  -->
<!DOCTYPE svg PUBLIC "-//W3C//DTD SVG 1.1//EN" "http://www.w3.org/Graphics/SVG/1.1/DTD/svg11.dtd">
<svg version="1.1" id="Capa_1" xmlns="http://www.w3.org/2000/svg" xmlns:xlink="http://www.w3.org/1999/xlink" x="0px" y="0px"
	 width="32.354px" height="32.354px" viewBox="0 0 32.354 32.354" style="enable-background:new 0 0 32.354 32.354;"
	 xml:space="preserve">
<g>
	<path d="M15.733,22.583c-3.278,1.448,2.896,5.385,1.062,7.76c-1.521-1.745-2.406-1.465-2.406-1.465s-1.094,2.438,1.375,3.401
		c-1.503,0.371-4.688-0.562-3.307-4.7c-1.597-2.859,3.403-6.986,3.403-6.986s-6.785,3.125-9.566-0.938
		c2.977,1.95,8.304-0.38,8.304-0.38l-0.676-1.196c0,0-7.402,3.093-8.219-2.079c2.499,3.043,7.665,0.983,7.665,0.983l-0.552-1.319
		c0,0-7.418,2.128-7.084-3.478c2.079,4.307,6.267,1.918,6.267,1.918S6.969,3.201,13.39,0.603c6.42-2.598,5.674,4.039,5.674,4.039
		s1.084,0.755,1.32,2.215c0.233,1.46-1.136,2.251-0.664,3.339c-1.123-2.262-1.459-1.705-2.029-3.018
		c-0.569-1.312,0.297-2.203,0.297-2.203s-0.68-4.862-4.354-2.004c-3.674,2.858,1.604,9.394,1.604,9.394s2.429-1.429,1.71-5.422
		c2.26,3.474-0.594,6.979-0.594,6.979l0.619,0.966c0,0,2.98-2.117,2.09-4.827c3.229,1.745-1.274,6.124-1.274,6.124l0.556,1.23
		c0,0,3.441-0.81,3.479-4.446c2.338,3.229-3.576,6.187-3.354,6.594c2.672-1.002,5.809,0.744,5.733,2.096
		c2.03-0.031,3.965,4.654,0.681,5.6c0.668-2.82-1.439-3.5-1.439-3.5s-0.682,1.307,0.132,2.868c-4.497,0.03,0.31-6.28-4.06-5.97
		c-0.306,0.127,0.656,1.906-0.168,2.406c0.422,0.225,1.166,1.733-0.021,2.267c0.344-0.578-0.221-1.896-1.038-1.703
		c-0.817,0.192,0.028,1.75,0.647,1.812c-0.229,0.609-2.109-0.062-1.984-1.625C16.294,23.682,16.231,22.426,15.733,22.583z"/>
</g>
<g>
</g>
<g>
</g>
<g>
</g>
<g>
</g>
<g>
</g>
<g>
</g>
<g>
</g>
<g>
</g>
<g>
</g>
<g>
</g>
<g>
</g>
<g>
</g>
<g>
</g>
<g>
</g>
<g>
</g>
</svg>
