<?xml version="1.0" encoding="iso-8859-1"?>
<!-- Generator: Adobe Illustrator 16.0.0, SVG Export Plug-In . SVG Version: 6.00 Build 0)  -->
<!DOCTYPE svg PUBLIC "-//W3C//DTD SVG 1.1//EN" "http://www.w3.org/Graphics/SVG/1.1/DTD/svg11.dtd">
<svg version="1.1" id="Capa_1" xmlns="http://www.w3.org/2000/svg" xmlns:xlink="http://www.w3.org/1999/xlink" x="0px" y="0px"
	 width="27.505px" height="27.505px" viewBox="0 0 27.505 27.505" style="enable-background:new 0 0 27.505 27.505;"
	 xml:space="preserve">
<g>
	<path d="M23.872,12.018c0,0,7.625-5.25,0.78-10.25c0.234,0.893,0.336,1.68,0.345,2.382c0.666,0.267,1.379,0.748,1.438,1.6
		c-0.49-0.583-1.008-0.931-1.46-1.14c-0.023,0.446-0.088,0.855-0.189,1.226c0.574,0.29,1.114,0.755,1.156,1.495
		c-0.428-0.521-0.876-0.848-1.288-1.066c-0.131,0.354-0.297,0.666-0.483,0.95c0.42,0.358,0.746,0.84,0.689,1.464
		c-0.294-0.487-0.622-0.837-0.941-1.104c-0.238,0.294-0.502,0.542-0.779,0.759c0.328,0.499,0.533,1.108,0.255,1.731
		c-0.136-0.623-0.366-1.097-0.614-1.472c-0.403,0.268-0.815,0.468-1.204,0.616c0.193,0.635,0.239,1.382-0.296,1.935
		c0.103-0.725,0.023-1.32-0.114-1.789c-0.771,0.241-1.355,0.288-1.355,0.288s-2.436-1.169-6.057-1.169S7.696,9.643,7.696,9.643
		S7.11,9.596,6.339,9.354c-0.138,0.469-0.216,1.064-0.115,1.789c-0.535-0.553-0.49-1.3-0.295-1.935
		c-0.389-0.148-0.8-0.349-1.205-0.616c-0.248,0.375-0.478,0.849-0.612,1.472C3.834,9.441,4.039,8.832,4.367,8.333
		C4.091,8.117,3.826,7.869,3.588,7.575C3.267,7.841,2.939,8.19,2.646,8.678C2.59,8.054,2.917,7.572,3.337,7.213
		C3.149,6.931,2.983,6.618,2.852,6.265C2.44,6.482,1.992,6.81,1.564,7.331c0.042-0.74,0.582-1.205,1.157-1.495
		c-0.102-0.371-0.166-0.779-0.19-1.226C2.077,4.818,1.56,5.167,1.07,5.75c0.058-0.853,0.772-1.333,1.438-1.6
		c0.008-0.702,0.109-1.489,0.344-2.382c-6.844,5,0.781,10.25,0.781,10.25s-3.219-0.094-2.438,1.188c0.781,1.283,3,2.406,4,2.469
		c1,0.062,2.281-0.845,2.281-0.845s0.344,4.75,2.563,6.062c-0.594,0.125-0.781,0.375-0.766,0.844s0.236,1.34,0.438,1.359
		c0.391-0.75,2.094,0.688,0.969,1.219c0.712,1.176,2.245,1.383,2.909,1.415c0,0.001,0.002,0.007,0.002,0.007
		s0.067,0.002,0.162-0.001c0.094,0.003,0.162,0.001,0.162,0.001s0.002-0.006,0.002-0.007c0.664-0.032,2.196-0.239,2.91-1.415
		c-1.125-0.531,0.576-1.969,0.969-1.219c0.201-0.021,0.422-0.891,0.438-1.359c0.017-0.468-0.172-0.719-0.766-0.844
		c2.219-1.312,2.562-6.062,2.562-6.062s1.281,0.905,2.281,0.845c1-0.062,3.219-1.188,4-2.469S23.872,12.018,23.872,12.018z
		 M9.414,18.125c-0.703,0.328-1.438-1.201-1.531-2.092c-0.093-0.893,0.344-1.031,0.531-1.234S10.117,17.797,9.414,18.125z
		 M19.622,16.033c-0.095,0.893-0.828,2.422-1.531,2.094c-0.702-0.327,0.812-3.529,1-3.326
		C19.277,15.002,19.715,15.143,19.622,16.033z"/>
</g>
<g>
</g>
<g>
</g>
<g>
</g>
<g>
</g>
<g>
</g>
<g>
</g>
<g>
</g>
<g>
</g>
<g>
</g>
<g>
</g>
<g>
</g>
<g>
</g>
<g>
</g>
<g>
</g>
<g>
</g>
</svg>
