<?xml version="1.0" encoding="iso-8859-1"?>
<!-- Generator: Adobe Illustrator 16.0.0, SVG Export Plug-In . SVG Version: 6.00 Build 0)  -->
<!DOCTYPE svg PUBLIC "-//W3C//DTD SVG 1.1//EN" "http://www.w3.org/Graphics/SVG/1.1/DTD/svg11.dtd">
<svg version="1.1" id="Capa_1" xmlns="http://www.w3.org/2000/svg" xmlns:xlink="http://www.w3.org/1999/xlink" x="0px" y="0px"
	 width="28.857px" height="28.857px" viewBox="0 0 28.857 28.857" style="enable-background:new 0 0 28.857 28.857;"
	 xml:space="preserve">
<g>
	<path d="M23.653,24.451c-1.55,0.125-2.136,0.417-3.886,0.292c-4.168-0.083-0.822-4.073-1.418-6.917
		c-0.594-2.845-0.101-5.168-0.276-8.081c-0.062-1.03-0.353-1.506-0.519-1.702c-0.043-0.158-0.111-0.319-0.228-0.471
		c0.399,0.41,0.522-0.137,0.522-0.137s-0.121,0.505,0.025,0.589s0.657,0.095,0.547,0.569c0.069,0.024,0.165,0.067,0.157-0.184
		c-0.004-0.125-0.087-0.313-0.166-0.487c0.843-0.08,0.534-0.763,0.534-0.763s0.931,0.127,0.208,0.668
		c1.046-0.494-0.196-0.882-0.196-0.882s0.321-0.099,0.51,0.11c0.029-0.282-0.401-0.251-0.57-0.355
		c-0.168-0.104-0.317-0.803-0.317-0.803s0.573,0.323,0.397,0.674c0.248-0.15,0.259-0.369,0.231-0.76
		c-0.022-0.392-0.401-0.317-0.416-0.473c-0.01-0.109,0.095-0.125,0.156-0.208c0,0.02,0.002,0.038,0.009,0.056
		c0.064,0.154,0.385,0.42,0.288,0.625c0.293-0.202-0.164-0.546-0.171-0.687c-0.009-0.14,0.312-0.288,0.316-0.515
		c0.009-0.228-0.627-0.353-0.644-0.508c-0.016-0.156,0.281-0.216,0.288-0.374c0.002-0.067-0.09-0.256-0.195-0.451
		c0.084,0.07,0.17,0.138,0.152,0.207c0.17-0.081-0.105-0.264-0.092-0.343c0.014-0.08,0.229-0.137,0.135-0.368
		c-0.094-0.232-0.74-0.594-0.74-0.594s0.197-0.058,0.416-0.037s0.438,0.164,0.264,0.403c0.244,0.075,0.203-0.451,0.062-0.532
		c-0.143-0.081-0.393-0.153-0.681-0.085c0.271-1.198-1.146-1.28-1.146-1.28s0.076-0.267-0.037-0.361
		c-0.115-0.095-0.889-0.192-1.269-0.275c-0.381-0.083-1.389,0.314-1.746,0.466c-0.359,0.149-0.74,0.818-0.993,0.813
		c-0.248-0.003-0.552,0.085-0.636,0.584c0.057,0.178,0.12,0.326,0.177,0.44c-0.04,0.104-0.067,0.213-0.085,0.321
		c-0.151,0.029-0.334,0.021-0.407-0.155c-0.044,0.275,0.205,0.306,0.39,0.292c-0.039,0.411,0.048,0.8,0.116,0.976
		c0.003,0.013,0.006,0.027,0.009,0.04c-0.072,0.015-0.185,0.015-0.276-0.114c-0.038,0.185,0.176,0.213,0.293,0.214
		c0.012,0.122-0.003,0.256-0.087,0.382c-0.175,0.263-0.371,0.383-0.435,0.56C12.138,5.077,12.61,5.12,12.61,5.12l0.002,0.093
		c0,0-0.151,0.147-0.12,0.263c0.043,0.152,0.348,0.098,0.348,0.098s-0.292,0.108-0.28,0.25c0.015,0.143,0.137,0.205,0.137,0.205
		s-0.283,0.556,0.134,0.679c0.416,0.123,1.262-0.386,1.372,0.208c0.068,0.265,0.21,0.771,0.393,1.153
		c0.337,1.476-1.942,2.569-2.161,3.726c-0.125,0.845,0.219,1.156,0.724,1.23c-1.096,2.597-4.112,0.399-4.442,0.27
		c-0.329-0.13-1.892-1.044-1.892-1.044c0-0.35-0.183-0.945-0.471-1.327V9.026c0-0.022,0.003-0.041,0.003-0.063
		c0.256,0.555,0.562,0.951,0.692,0.894C7.183,9.796,7.08,9.283,6.822,8.708c-0.075-0.168-0.156-0.32-0.235-0.453
		c0.127,0.11,0.278,0.227,0.45,0.338c0.525,0.346,1.018,0.527,1.098,0.405c0.081-0.122-0.281-0.501-0.807-0.847
		C7.223,8.083,7.121,8.022,7.021,7.967c0.126,0.012,0.26,0.019,0.402,0.019c0.63,0,1.14-0.119,1.14-0.265s-0.51-0.266-1.14-0.266
		c-0.164,0-0.319,0.008-0.46,0.023c0.088-0.048,0.179-0.101,0.271-0.16c0.531-0.337,0.898-0.711,0.82-0.835
		C7.976,6.36,7.483,6.534,6.951,6.873C6.917,6.895,6.887,6.917,6.854,6.938c0.02-0.034,0.04-0.066,0.061-0.103
		c0.314-0.545,0.468-1.046,0.341-1.12C7.13,5.646,6.771,6.027,6.457,6.574C6.419,6.638,6.386,6.702,6.352,6.765
		c0.004-0.071,0.005-0.145,0.005-0.22c0-0.629-0.118-1.14-0.265-1.14c-0.143,0-0.259,0.489-0.264,1.099
		C5.573,5.951,5.267,5.551,5.138,5.61C5.004,5.67,5.105,6.185,5.364,6.757c0.024,0.054,0.05,0.104,0.074,0.154
		C5.405,6.892,5.375,6.87,5.342,6.848C4.814,6.502,4.324,6.321,4.244,6.443c-0.081,0.123,0.28,0.501,0.807,0.847
		c0.1,0.065,0.196,0.123,0.292,0.175C5.248,7.46,5.151,7.457,5.05,7.457c-0.63,0-1.14,0.118-1.14,0.265
		c0,0.146,0.51,0.265,1.14,0.265c0.063,0,0.123-0.002,0.184-0.004C5.14,8.032,5.046,8.085,4.948,8.147
		C4.417,8.485,4.051,8.86,4.129,8.983c0.078,0.124,0.572-0.051,1.104-0.388C5.267,8.574,5.299,8.55,5.332,8.528
		C5.31,8.563,5.29,8.595,5.269,8.63C4.955,9.175,4.804,9.676,4.93,9.75c0.127,0.073,0.484-0.31,0.799-0.854
		c0.036-0.066,0.072-0.13,0.104-0.193C5.83,8.774,5.828,8.848,5.828,8.921c0,0.359,0.041,0.666,0.102,0.875v0.804
		c-0.043-0.013-0.085-0.03-0.13-0.03c-0.446,0-0.303,0.193-0.334,0.662c-0.031,0.469-0.313,1.812,0.688,2.281
		c1.864,0.764,4.088,3.52,6.866,2.471c0.501-0.363,1.103,2.904-2.022,2.717c-2.313-0.125-3.417,1.229-2.75,3.062
		c0.501,1.457,3.257,3.788,3.167,5.292c0.04,0.634-2.302-0.065-2.354,1.062c-0.045,0.997,3.355,0.712,4.083,0.667
		s0.229-2.781,0.292-2.812c1.281,0.655,1.783,1.921,4,2.062c2.959,0,4.875-1.875,5.5-1.625s0.291,1.344,0.541,1.917
		c0.25,0.572,1.043,0.396,1.304,0.125C25.04,28.182,25.202,24.326,23.653,24.451z M19.164,4.648c0,0.094-0.104,0.22-0.167,0.339
		C19,4.753,18.681,4.47,18.681,4.47S19.164,4.5,19.164,4.648z M18.832,2.824c0.062,0.104-0.079,0.086-0.125,0.213
		c-0.098-0.167-0.18-0.299-0.18-0.299S18.767,2.711,18.832,2.824z M18.527,7.173c0,0,0.691,0.507-0.121,0.731
		c-0.075-0.165-0.145-0.312-0.13-0.369C18.306,7.417,18.527,7.173,18.527,7.173z M5.771,7.722c0-0.164,0.154-0.298,0.345-0.298
		s0.345,0.134,0.345,0.298c0,0.163-0.155,0.297-0.345,0.297S5.771,7.885,5.771,7.722z"/>
</g>
<g>
</g>
<g>
</g>
<g>
</g>
<g>
</g>
<g>
</g>
<g>
</g>
<g>
</g>
<g>
</g>
<g>
</g>
<g>
</g>
<g>
</g>
<g>
</g>
<g>
</g>
<g>
</g>
<g>
</g>
</svg>
